<?xml version="1.0" encoding="UTF-8"?>
<svg width="92px" height="92px" viewBox="0 0 92 92" version="1.1" xmlns="http://www.w3.org/2000/svg" xmlns:xlink="http://www.w3.org/1999/xlink">
    <!-- Generator: Sketch 48.2 (47327) - http://www.bohemiancoding.com/sketch -->
    <title>file</title>
    <desc>Created with Sketch.</desc>
    <defs>
        <filter x="-8.3%" y="-6.0%" width="116.7%" height="116.7%" filterUnits="objectBoundingBox" id="filter-1">
            <feOffset dx="0" dy="2" in="SourceAlpha" result="shadowOffsetOuter1"></feOffset>
            <feGaussianBlur stdDeviation="2" in="shadowOffsetOuter1" result="shadowBlurOuter1"></feGaussianBlur>
            <feColorMatrix values="0 0 0 0 0   0 0 0 0 0   0 0 0 0 0  0 0 0 0.5 0" type="matrix" in="shadowBlurOuter1" result="shadowMatrixOuter1"></feColorMatrix>
            <feMerge>
                <feMergeNode in="shadowMatrixOuter1"></feMergeNode>
                <feMergeNode in="SourceGraphic"></feMergeNode>
            </feMerge>
        </filter>
    </defs>
    <g id="iPhone-8" stroke="none" stroke-width="1" fill="none" fill-rule="evenodd" transform="translate(-142.000000, -67.000000)">
        <g id="file" filter="url(#filter-1)" transform="translate(146.000000, 69.000000)" fill-rule="nonzero">
            <path d="M42.0384413,0.00441450578 C32.6223531,0.0628177442 23.3135428,3.31076619 16,9.02250793 L23.9910272,18 C30.7352941,12.8499186 39.8225228,10.751219 48.2508718,12.372556 C52.8828031,13.2347956 57.2902982,15.2028114 61.0089728,18 L69,9.02250793 C61.4353296,3.11584673 51.7783865,-0.136816606 42.0384413,0.00441450578 Z" id="path3961" fill="#FA9C1E"></path>
            <path d="M13.1079107,11.3801951 C4.74936899,19.246954 -0.151507426,30.6825076 0.00357336797,42.2176806 C0.00852936795,54.1912889 5.46058999,65.9528297 14.5148643,73.7321196 C22.8842154,81.0652055 34.266872,84.800763 45.3794545,83.8557725 C57.4209034,82.9574234 68.8501492,76.5142602 75.9158567,66.7248076 C82.7932923,57.4219968 85.4877729,45.1542207 83.2048181,33.7780153 C81.5265527,25.0694869 76.9691397,16.9987697 70.4875752,11 L62.5549456,20.2266754 C68.9467548,26.2624049 72.4368568,35.1716895 71.778826,43.9610222 C71.4909804,48.3156925 70.228522,52.613309 68.0948282,56.4378981 L51.9287385,40.7942797 L43.7723385,23.1808678 L43.7600745,49.8540395 L60.0974052,65.6923929 C52.8171393,71.3589274 42.8279923,73.2383822 33.9765232,70.7266574 C30.3723786,69.7194631 26.9594642,68.0295343 23.9932926,65.7619404 L40.4416979,49.8540395 C40.4130245,41.1820541 40.5421479,31.8206875 40.4416013,23.152207 L32.2730326,40.7942797 L15.9680993,56.5677209 C10.9938338,47.8685123 10.8748464,36.6221957 15.6626431,27.8259316 C17.1593872,25.0079717 19.1403914,22.4362674 21.43856,20.2266754 L13.5059307,11 C13.3732569,11.1267317 13.2405831,11.253462 13.1079107,11.3801951 Z" id="path4052" fill="#F2F2F2"></path>
        </g>
    </g>
</svg>